<?xml version="1.0" encoding="UTF-8" standalone="no"?>
<!DOCTYPE svg PUBLIC "-//W3C//DTD SVG 1.1//EN" "http://www.w3.org/Graphics/SVG/1.1/DTD/svg11.dtd">
<svg height="100%" stroke-miterlimit="10" style="fill-rule:nonzero;clip-rule:evenodd;stroke-linecap:round;stroke-linejoin:round;" version="1.1" viewBox="0 0 64 64" width="100%" xml:space="preserve" xmlns="http://www.w3.org/2000/svg" xmlns:xlink="http://www.w3.org/1999/xlink">
  <defs/>
  <g id="XMLID_2_">
    <g opacity="1">
      <path d="M52.8 38.7L52.8 35.5C52.8 31.9 49.9 29 46.3 29L46.3 29C42.7 29 39.8 31.9 39.8 35.5L39.8 38.7L52.8 38.7Z" fill="#d1d3d4" fill-rule="nonzero" opacity="1" stroke="none"/>
      <g opacity="1">
        <path d="M50.1 26.6L50.1 24.8C50.1 22.7 48.4 21 46.3 21L46.3 21C44.2 21 42.5 22.7 42.5 24.8L42.5 26.6L50.1 26.6Z" fill="#bcbec0" fill-rule="nonzero" opacity="1" stroke="none"/>
        <path d="M42.7 27.7L42.5 27.7C42.3 27.7 42.1 27.5 42.1 27.3L42.1 26.6C42.1 26.4 42.3 26.2 42.5 26.2L42.7 26.2L42.7 27.7Z" fill="#e6e7e8" fill-rule="nonzero" opacity="1" stroke="none"/>
        <path d="M49.8 27.7L50 27.7C50.2 27.7 50.4 27.5 50.4 27.3L50.4 26.6C50.4 26.4 50.2 26.2 50 26.2L49.8 26.2C49.8 26.2 49.8 27.7 49.8 27.7Z" fill="#e6e7e8" fill-rule="nonzero" opacity="1" stroke="none"/>
        <path d="M42.7 25.5L42.7 27.7C42.7 29.6 44.3 31.2 46.2 31.2L46.2 31.2C48.1 31.2 49.7 29.6 49.7 27.7L49.7 25.8C47.1 25.3 45.2 23.9 44.6 23.5C44.7 23.6 43.7 25.2 42.7 25.5Z" fill="#e6e7e8" fill-rule="nonzero" opacity="1" stroke="none"/>
      </g>
    </g>
    <g opacity="1">
      <path d="M24.3 38.7L24.3 35.5C24.3 31.9 21.4 29 17.8 29L17.8 29C14.2 29 11.3 31.9 11.3 35.5L11.3 38.7L24.3 38.7Z" fill="#d1d3d4" fill-rule="nonzero" opacity="1" stroke="none"/>
      <g opacity="1">
        <path d="M21.6 26.6L21.6 24.8C21.6 22.7 19.9 21 17.8 21L17.8 21C15.7 21 14 22.7 14 24.8L14 26.6L21.6 26.6Z" fill="#bcbec0" fill-rule="nonzero" opacity="1" stroke="none"/>
        <path d="M14.2 27.7L14 27.7C13.8 27.7 13.6 27.5 13.6 27.3L13.6 26.6C13.6 26.4 13.8 26.2 14 26.2L14.2 26.2C14.2 26.2 14.2 27.7 14.2 27.7Z" fill="#e6e7e8" fill-rule="nonzero" opacity="1" stroke="none"/>
        <path d="M21.3 27.7L21.5 27.7C21.7 27.7 21.9 27.5 21.9 27.3L21.9 26.6C21.9 26.4 21.7 26.2 21.5 26.2L21.3 26.2L21.3 27.7Z" fill="#e6e7e8" fill-rule="nonzero" opacity="1" stroke="none"/>
        <path d="M14.2 25.5L14.2 27.7C14.2 29.6 15.8 31.2 17.7 31.2L17.7 31.2C19.6 31.2 21.2 29.6 21.2 27.7L21.2 25.8C18.6 25.3 16.7 23.9 16.1 23.5C16.2 23.6 15.2 25.2 14.2 25.5Z" fill="#e6e7e8" fill-rule="nonzero" opacity="1" stroke="none"/>
      </g>
    </g>
    <g opacity="1">
      <path d="M42.2 47.8L42.2 42.7C42.2 37.1 37.6 32.5 32 32.5L32 32.5C26.4 32.5 21.8 37.1 21.8 42.7L21.8 47.8L42.2 47.8Z" fill="#36d7b7" fill-rule="nonzero" opacity="1" stroke="none"/>
      <path d="M21.8 47.8L21.8 42.7C21.8 37.1 26.4 32.5 32 32.5L32 32.5C37.6 32.5 42.2 37.1 42.2 42.7L42.2 47.8" fill="none" opacity="1" stroke="#414042" stroke-linecap="butt" stroke-linejoin="miter" stroke-width="1"/>
      <path d="M25.3 27.4C25.3 27.9 24.9 28.3 24.4 28.3L24.4 28.3C23.9 28.3 23.5 27.9 23.5 27.4L23.5 26.5C23.5 26 23.9 25.6 24.4 25.6L24.4 25.6C24.9 25.6 25.3 26 25.3 26.5L25.3 27.4Z" fill="#ffffff" fill-rule="nonzero" opacity="1" stroke="none"/>
      <path d="M25.3 27.4C25.3 27.9 24.9 28.3 24.4 28.3L24.4 28.3C23.9 28.3 23.5 27.9 23.5 27.4L23.5 26.5C23.5 26 23.9 25.6 24.4 25.6L24.4 25.6C24.9 25.6 25.3 26 25.3 26.5L25.3 27.4Z" fill="none" opacity="1" stroke="#414042" stroke-linecap="round" stroke-linejoin="miter" stroke-width="1"/>
      <path d="M40.2 27.4C40.2 27.9 39.8 28.3 39.3 28.3L39.3 28.3C38.8 28.3 38.4 27.9 38.4 27.4L38.4 26.5C38.4 26 38.8 25.6 39.3 25.6L39.3 25.6C39.8 25.6 40.2 26 40.2 26.5L40.2 27.4Z" fill="#ffffff" fill-rule="nonzero" opacity="1" stroke="none"/>
      <path d="M40.2 27.4C40.2 27.9 39.8 28.3 39.3 28.3L39.3 28.3C38.8 28.3 38.4 27.9 38.4 27.4L38.4 26.5C38.4 26 38.8 25.6 39.3 25.6L39.3 25.6C39.8 25.6 40.2 26 40.2 26.5L40.2 27.4Z" fill="none" opacity="1" stroke="#414042" stroke-linecap="round" stroke-linejoin="miter" stroke-width="1"/>
      <path d="M38.8 20.9L38.8 28.2C38.8 32.1 35.7 35.2 31.8 35.2L31.8 35.2C27.9 35.2 24.8 32.1 24.8 28.2L24.8 20.9L38.8 20.9Z" fill="#ffffff" fill-rule="nonzero" opacity="1" stroke="none"/>
      <path d="M38.8 20.9L38.8 28.2C38.8 32.1 35.7 35.2 31.8 35.2L31.8 35.2C27.9 35.2 24.8 32.1 24.8 28.2L24.8 20.9L38.8 20.9Z" fill="none" opacity="1" stroke="#414042" stroke-linecap="round" stroke-linejoin="miter" stroke-width="1"/>
      <path d="M41.3 16.2L41.3 19.2C41.3 20.8 40 22 38.5 22L27.1 22C26.3 22 25.7 22.6 25.7 23.4L25.7 25.3C25.7 25.5 25.6 25.6 25.4 25.6L24 25.6C23.8 25.6 23.7 25.5 23.7 25.3L23.7 19.9C24.1 18.6 25.7 19.1 25.7 19.1C25.7 17.5 27 16.3 28.5 16.3L41.3 16.3L41.3 16.2Z" fill="#f5ab35" fill-rule="nonzero" opacity="1" stroke="none"/>
      <path d="M38.1 20.8C39.8 20.8 41.2 19.4 41.2 17.7L41.2 16.1L28.5 16.1C26.9 16.1 25.7 17.4 25.7 18.9C25.7 18.9 24.2 18.4 23.7 19.7L23.7 25.2L24.3 25.2C24.5 25.2 24.6 25.1 24.6 24.9L24.6 22.2C24.6 21.3 25.3 20.7 26.1 20.7L38.1 20.7L38.1 20.8Z" fill="#f7bc5d" fill-rule="nonzero" opacity="1" stroke="none"/>
      <path d="M41.3 16.2L41.3 19.2C41.3 20.8 40 22 38.5 22L27.1 22C26.3 22 25.7 22.6 25.7 23.4L25.7 25.3C25.7 25.5 25.6 25.6 25.4 25.6L24 25.6C23.8 25.6 23.7 25.5 23.7 25.3L23.7 19.9C24.1 18.6 25.7 19.1 25.7 19.1C25.7 17.5 27 16.3 28.5 16.3L41.3 16.3L41.3 16.2Z" fill="none" opacity="1" stroke="#414042" stroke-linecap="round" stroke-linejoin="miter" stroke-width="1"/>
      <path d="M27.1 42L27.1 47.8" fill="none" opacity="1" stroke="#414042" stroke-linecap="butt" stroke-linejoin="miter" stroke-width="1"/>
      <path d="M37.5 42L37.5 47.8" fill="none" opacity="1" stroke="#414042" stroke-linecap="butt" stroke-linejoin="miter" stroke-width="1"/>
    </g>
  </g>
</svg>
