
<svg height="100%" stroke-miterlimit="10" style="fill-rule:nonzero;clip-rule:evenodd;stroke-linecap:round;stroke-linejoin:round;" version="1.1" viewBox="0 0 64 64" width="100%" xml:space="preserve" xmlns="http://www.w3.org/2000/svg" xmlns:xlink="http://www.w3.org/1999/xlink">
  <defs/>
  <g id="XMLID_1006_">
    <path d="M23.6 34.8L29.5 32.6L29.5 24.4L26.1 26.5C24.5 27.5 23.6 29.2 23.6 31L23.6 34.8Z" fill="#e6e7e8" fill-rule="nonzero" opacity="1" stroke="none"/>
    <path d="M27.1 27.2C27.1 26.7 27.1 26.3 27.2 25.8L29.3 24.5L29.3 32.7L27 33.5L27 27.2L27.1 27.2Z" fill="#d1d3d4" fill-rule="nonzero" opacity="1" stroke="none"/>
    <path d="M40.4 34.8L34.5 32.6L34.5 24.4L37.9 26.5C39.5 27.5 40.4 29.2 40.4 31L40.4 34.8Z" fill="#e6e7e8" fill-rule="nonzero" opacity="1" stroke="none"/>
    <path d="M36.9 27.2C36.9 26.7 36.9 26.3 36.8 25.8L34.7 24.5L34.7 32.7L37 33.5L37 27.2L36.9 27.2Z" fill="#d1d3d4" fill-rule="nonzero" opacity="1" stroke="none"/>
    <path d="M35.2 34.4L28.4 34.4L29.5 32.5L34.1 32.5L35.2 34.4Z" fill="#939598" fill-rule="nonzero" opacity="1" stroke="none"/>
    <path d="M24.3 19.5C24.3 15.3026 27.7026 11.9 31.9 11.9C36.0974 11.9 39.5 15.3026 39.5 19.5C39.5 23.6974 36.0974 27.1 31.9 27.1C27.7026 27.1 24.3 23.6974 24.3 19.5Z" fill="#f5ab35" fill-rule="nonzero" opacity="1" stroke="none"/>
    <path d="M28.2 21.6L35.6 21.6L35.6 21.6L35.6 30L35.6 30L28.2 30L28.2 30L28.2 21.6L28.2 21.6Z" fill="#f5ab35" fill-rule="nonzero" opacity="1" stroke="none"/>
    <path d="M28.2 29.8L35.8 29.8L35.8 29.8L35.8 32.8L35.8 32.8L28.2 32.8L28.2 32.8L28.2 29.8L28.2 29.8Z" fill="#e6e7e8" fill-rule="nonzero" opacity="1" stroke="none"/>
    <path d="M29.7 36.5L29.7 43.1" fill="none" opacity="1" stroke="#414042" stroke-linecap="butt" stroke-linejoin="miter" stroke-width="1"/>
    <path d="M19.8 26.4L19.8 33.1" fill="none" opacity="1" stroke="#414042" stroke-linecap="butt" stroke-linejoin="miter" stroke-width="1"/>
    <path d="M17.3 30.3L17.3 36.9" fill="none" opacity="1" stroke="#414042" stroke-linecap="butt" stroke-linejoin="miter" stroke-width="1"/>
    <path d="M44.4 26.9L44.4 33.6" fill="none" opacity="1" stroke="#414042" stroke-linecap="butt" stroke-linejoin="miter" stroke-width="1"/>
    <path d="M46.9 25.6L46.9 32.3" fill="none" opacity="1" stroke="#414042" stroke-linecap="butt" stroke-linejoin="miter" stroke-width="1"/>
    <path d="M28.5 19.5L35.1 19.5" fill="none" opacity="1" stroke="#414042" stroke-linecap="butt" stroke-linejoin="miter" stroke-width="1"/>
    <path d="M44.4 36.5L44.4 34.6" fill="none" opacity="1" stroke="#414042" stroke-linecap="butt" stroke-linejoin="miter" stroke-width="1"/>
    <path d="M38.5 42L38.5 37.9" fill="none" opacity="1" stroke="#414042" stroke-linecap="butt" stroke-linejoin="miter" stroke-width="1"/>
    <path d="M19.8 38L19.8 35" fill="none" opacity="1" stroke="#414042" stroke-linecap="butt" stroke-linejoin="miter" stroke-width="1"/>
    <path d="M25 41.3L25 36.4" fill="none" opacity="1" stroke="#414042" stroke-linecap="butt" stroke-linejoin="miter" stroke-width="1"/>
    <path d="M34.1 36.5L34.1 43.1" fill="none" opacity="1" stroke="#414042" stroke-linecap="butt" stroke-linejoin="miter" stroke-width="1"/>
    <path d="M31.9 38L31.9 44.6" fill="none" opacity="1" stroke="#414042" stroke-linecap="butt" stroke-linejoin="miter" stroke-width="1"/>
    <path d="M51.3 51.4C51.3 50.5 50.6 49.7 49.6 49.7C49.3 49.7 49 49.8 48.8 49.9C48.4 48.8 47.6 47.9 46.5 47.4C46.4 45.2 44.6 43.4 42.3 43.4C40.4 43.4 38.9 44.6 38.3 46.3C38 45.8 37.5 45.5 36.9 45.5C36.3 45.5 35.8 45.8 35.5 46.3C35 45.5 34.2 45 33.2 45C32.5 45 31.8 45.3 31.3 45.7C30.7 44.6 29.5 43.8 28.1 43.8C26.2 43.8 24.6 45.2 24.4 47.1C23.9 46.9 23.4 46.8 22.9 46.8C22.5 46.8 22.2 46.9 21.8 47C21 46.2 20 45.6 18.7 45.6C16.7 45.6 15.1 47 14.7 48.8C13.6 48.8 12.7 49.7 12.7 50.8C12.7 51.2 12.8 51.6 13 51.9L51.1 51.9C51.2 51.9 51.3 51.7 51.3 51.4Z" fill="#f1f2f2" fill-rule="nonzero" opacity="1" stroke="none"/>
    <path d="M49.6 49.8C49.3 49.8 49 49.9 48.8 50C48.4 48.9 47.6 48 46.5 47.5C46.4 45.3 44.6 43.5 42.3 43.5C40.4 43.5 38.9 44.7 38.3 46.4C38 45.9 37.5 45.6 36.9 45.6" fill="none" opacity="1" stroke="#414042" stroke-linecap="butt" stroke-linejoin="miter" stroke-width="1"/>
    <path d="M31.4 46C30.8 44.9 29.6 44.1 28.2 44.1C26.3 44.1 24.7 45.5 24.5 47.4C24 47.2 23.5 47.1 23 47.1C22.6 47.1 22.3 47.2 21.9 47.3C21.1 46.5 20.1 45.9 18.8 45.9C16.8 45.9 15.2 47.3 14.8 49.1" fill="none" opacity="1" stroke="#414042" stroke-linecap="butt" stroke-linejoin="miter" stroke-width="1"/>
    <path d="M13 52.1L51.1 52.1" fill="none" opacity="1" stroke="#414042" stroke-linecap="butt" stroke-linejoin="miter" stroke-width="1"/>
    <path d="M31.8 29.7L31.9 19.5" fill="none" opacity="1" stroke="#414042" stroke-linecap="butt" stroke-linejoin="miter" stroke-width="1"/>
  </g>
</svg>
